<svg width="24" height="24" viewBox="0 0 24 24" fill="none" xmlns="http://www.w3.org/2000/svg">
  <path d="M11.53 2C11.53 2 4.24 8.85 4.24 12.19C4.24 14.24 5.47 15.95 7.24 16.76L11.53 12.47V2Z" fill="#2684FF"/>
  <path d="M12.47 2V12.47L16.76 16.76C18.53 15.95 19.76 14.24 19.76 12.19C19.76 8.85 12.47 2 12.47 2Z" fill="#2684FF"/>
  <path d="M7.24 16.76C6.43 17.57 6.43 18.88 7.24 19.69L11.53 23.98V12.47L7.24 16.76Z" fill="#2684FF"/>
  <path d="M12.47 12.47V23.98L16.76 19.69C17.57 18.88 17.57 17.57 16.76 16.76L12.47 12.47Z" fill="#2684FF"/>
</svg>
